# xmcd
#
# Track frame offsets: 
#        150
#        18132
#        38179
#        54110
#        70487
#        87585
#        104017
#        121838
#        141948
#        159262
#        177003
#        193809
#        218431
#        240686
#
# Disc length: 3488 seconds
#
# Revision: 0
# Processed by: cddbd v1.5.2PL0 Copyright (c) Steve Scherf et al.
# Submitted via: ExactAudioCopy v0.99pb3
#
DISCID=ba0d9e0e
DTITLE=Leann Rimes - Family
DYEAR=1900
DGENRE=Pop
TTITLE0=Family
TTITLE1=Nothin' Better To Do (Album Version)
TTITLE2=Fight
TTITLE3=Good Friends And A Glass Of Wine
TTITLE4=Something I Can Feel
TTITLE5=I Want You With Me
TTITLE6=Doesn't Everybody
TTITLE7=Nothing Wrong
TTITLE8=Pretty Things
TTITLE9=Upper Hand
TTITLE10=One Day Too Long
TTITLE11=What I Cannot Change
TTITLE12=Till We Ain't Strangers Anymore
TTITLE13=When You Love Someone Like That
EXTD=
EXTT0=
EXTT1=
EXTT2=
EXTT3=
EXTT4=
EXTT5=
EXTT6=
EXTT7=
EXTT8=
EXTT9=
EXTT10=
EXTT11=
EXTT12=
EXTT13=
PLAYORDER=
